<?xml version="1.0" encoding="UTF-8"?>
<svg xmlns="http://www.w3.org/2000/svg" width="128" height="128" viewBox="0 0 128 128">
  <defs>
    <linearGradient id="sunGrad" x1="0" y1="0" x2="1" y2="1">
      <stop offset="0%" stop-color="#FFD76A"/>
      <stop offset="100%" stop-color="#F4A73C"/>
    </linearGradient>
  </defs>

  <!-- Rays -->
  <g stroke="#FDB813" stroke-width="8" stroke-linecap="round">
    <line x1="64" y1="10" x2="64" y2="26"/>
    <g transform="rotate(30 64 64)"><line x1="64" y1="10" x2="64" y2="26"/></g>
    <g transform="rotate(60 64 64)"><line x1="64" y1="10" x2="64" y2="26"/></g>
    <g transform="rotate(90 64 64)"><line x1="64" y1="10" x2="64" y2="26"/></g>
    <g transform="rotate(120 64 64)"><line x1="64" y1="10" x2="64" y2="26"/></g>
    <g transform="rotate(150 64 64)"><line x1="64" y1="10" x2="64" y2="26"/></g>
    <g transform="rotate(180 64 64)"><line x1="64" y1="10" x2="64" y2="26"/></g>
    <g transform="rotate(210 64 64)"><line x1="64" y1="10" x2="64" y2="26"/></g>
    <g transform="rotate(240 64 64)"><line x1="64" y1="10" x2="64" y2="26"/></g>
    <g transform="rotate(270 64 64)"><line x1="64" y1="10" x2="64" y2="26"/></g>
    <g transform="rotate(300 64 64)"><line x1="64" y1="10" x2="64" y2="26"/></g>
    <g transform="rotate(330 64 64)"><line x1="64" y1="10" x2="64" y2="26"/></g>
  </g>

  <!-- Sun core -->
  <circle cx="64" cy="64" r="28" fill="url(#sunGrad)"/>
  <!-- Soft inner shadow for subtle depth -->
  <path d="M64,36 a28,28 0 1,0 0,56 a24,24 0 1,1 0,-56" fill="#E2912C" opacity="0.25"/>
</svg>
